<svg width="50" height="79" viewBox="0 0 50 79" fill="none" xmlns="http://www.w3.org/2000/svg">
<circle cx="9.3125" cy="76.3125" r="1.3125" fill="white"/>
<path d="M16.6531 77.25C16.6531 76.2835 17.4366 75.5 18.4031 75.5H45.5281C46.4946 75.5 47.2781 76.2835 47.2781 77.25C47.2781 78.2165 46.4946 79 45.5281 79H18.4031C17.4366 79 16.6531 78.2165 16.6531 77.25Z" fill="white"/>
<path d="M2.65308 66.75C2.65308 65.7835 3.43658 65 4.40308 65H31.5281C32.4946 65 33.2781 65.7835 33.2781 66.75C33.2781 67.7165 32.4946 68.5 31.5281 68.5H4.40308C3.43658 68.5 2.65308 67.7165 2.65308 66.75Z" fill="white"/>
<circle cx="45.0906" cy="68.0625" r="1.3125" fill="white"/>
<g clip-path="url(#clip0_514_109)">
<path d="M43.8403 0C44.4045 0.347159 44.5738 0.848611 44.555 1.52364C44.5362 4.33949 44.5362 7.15533 44.5362 9.99047C44.5362 10.2605 44.5362 10.5112 44.5362 10.8777C45.7963 10.8777 47 10.8777 48.2224 10.8777C49.5766 10.8777 49.8587 11.167 49.8587 12.5942C49.8587 32.5365 49.8587 52.4596 49.8587 72.4019C49.8587 73.7906 49.5766 74.0799 48.2036 74.0799C37.2765 74.0799 26.3493 74.0799 15.4221 74.0799C14.3501 74.0799 13.8235 73.7327 13.8235 72.9998C13.8047 72.2669 14.3313 71.9005 15.4033 71.9005C25.8791 71.9005 36.3737 71.9005 46.8495 71.9005C47.1316 71.9005 47.3949 71.9005 47.7146 71.9005C47.7146 52.2667 47.7146 32.7101 47.7146 13.0378C47.4325 13.0378 47.188 13.0378 46.9435 13.0378C44.1224 13.0378 41.3013 13.0378 38.4801 13.0378C38.3109 13.0378 38.1416 13.0378 37.9911 13.0378C37.22 13.0185 36.7687 12.6134 36.7875 11.9577C36.7875 11.302 37.2388 10.8969 38.0288 10.8777C39.2513 10.8584 40.4737 10.8777 41.6962 10.8777C41.9219 10.8777 42.1476 10.8777 42.4109 10.8777C42.4109 8.0618 42.4109 5.32311 42.4109 2.50726C40.6618 2.95085 38.9315 3.39444 37.2012 3.83804C32.3489 5.07238 27.4966 6.32601 22.6442 7.56035C21.7791 7.77251 21.2336 7.52178 21.0832 6.82746C20.9327 6.17172 21.2901 5.68955 22.1176 5.4774C29.0012 3.70303 35.8659 1.94795 42.7495 0.17358C42.8811 0.135006 43.0128 0.0771465 43.1444 0.0192866C43.3701 0 43.6146 0 43.8403 0Z" fill="black"/>
<path d="M10.3253 10.8584C10.5886 10.8584 10.8331 10.8584 11.0964 10.8584C18.3561 10.8584 25.6158 10.8584 32.8755 10.8584C33.0824 10.8584 33.3081 10.8391 33.515 10.8584C34.1733 10.8969 34.6246 11.3405 34.6246 11.9384C34.6435 12.5556 34.1733 13.0185 33.4586 13.0185C30.6186 13.0377 27.7787 13.0185 24.92 13.0185C17.6038 13.0185 10.3065 13.0185 2.9904 13.0185C2.70828 13.0185 2.44498 13.0185 2.12525 13.0185C2.12525 32.6715 2.12525 52.2282 2.12525 71.8812C2.40736 71.8812 2.65186 71.8812 2.89636 71.8812C5.36014 71.8812 7.82393 71.8812 10.3065 71.8812C11.1905 71.8812 11.6607 72.267 11.6607 72.9806C11.6419 73.6556 11.1717 74.0413 10.3441 74.0413C7.33493 74.0413 4.32573 74.0413 1.31653 74.0413C0.37615 74.0606 0 73.6749 0 72.6334C0 70.5312 0 68.4482 0 66.346C0 48.4673 0 30.5693 0 12.6906C0 11.2441 0.131653 11.0898 1.5046 10.7234C6.73309 9.37329 11.9804 8.04252 17.2089 6.69245C18.2433 6.42244 18.8451 6.63459 18.9956 7.3482C19.1649 8.08109 18.7511 8.54397 17.7167 8.81398C15.2529 9.45044 12.7891 10.0869 10.3065 10.7234C10.3253 10.7619 10.3253 10.8198 10.3253 10.8584Z" fill="black"/>
<path d="M23.7539 39.8268C22.6254 38.6696 21.5346 37.551 20.4437 36.4324C20.3497 36.3359 20.124 36.2781 20.0112 36.3359C18.5442 37.011 17.0772 36.876 15.629 36.3167C14.0304 35.6995 12.695 34.6966 11.717 33.2501C10.5698 31.5529 10.2124 29.7206 11.04 27.7727C12.0556 25.3619 14.7262 24.2239 17.2464 25.1111C19.8607 26.0176 22.174 29.142 22.2493 31.9579C22.2681 32.7293 22.0236 33.5201 21.9295 34.2916C21.9107 34.5037 21.8731 34.793 21.9859 34.9087C23.0392 36.0274 24.13 37.1267 25.2585 38.3032C26.1988 37.3388 27.1016 36.4131 28.0044 35.468C28.0796 35.3909 28.0984 35.1595 28.042 35.0244C27.3837 33.5972 27.5718 32.2086 28.1548 30.82C29.208 28.332 30.9571 26.4033 32.9319 24.6482C33.4021 24.2432 34.0228 24.3204 34.3989 24.7447C34.8127 25.2076 34.7374 25.8247 34.2485 26.3455C33.2893 27.3677 32.3113 28.3706 31.4085 29.4506C30.6374 30.3957 30.0168 31.4564 29.8099 32.7101C29.7723 32.9415 29.7723 33.1729 29.7158 33.6358C30.0356 33.3465 30.2236 33.1922 30.3741 33.0186C32.0856 31.2636 33.7971 29.5085 35.5086 27.7534C35.8659 27.3869 36.2609 27.1748 36.7687 27.3484C37.5398 27.5991 37.709 28.5441 37.0696 29.2192C35.9223 30.4342 34.7563 31.6107 33.5902 32.8065C32.8567 33.5394 32.1232 34.2916 31.3897 35.0244C31.4273 35.1209 31.4649 35.198 31.5026 35.2945C32.1232 35.1209 32.8003 35.0437 33.3833 34.7544C35.2641 33.8865 36.7122 32.44 38.104 30.9164C38.2545 30.7621 38.3861 30.5885 38.5366 30.4535C39.0068 30.0678 39.4957 30.0678 39.9471 30.4535C40.3609 30.8392 40.4737 31.3986 40.0976 31.8229C38.1228 34.1565 35.9975 36.2781 33.0072 37.1845C32.0104 37.4931 31.0136 37.4353 30.0356 37.0303C29.8663 36.9531 29.5466 36.9724 29.4337 37.0881C28.531 37.956 27.647 38.8625 26.6878 39.8461C27.3273 40.4633 27.9103 41.0419 28.4933 41.6398C30.2236 43.4141 31.9539 45.1885 33.6842 46.9629C34.2673 47.5607 34.2861 48.2744 33.7595 48.7179C33.3081 49.1037 32.725 49.0265 32.1984 48.4865C30.092 46.3264 27.9667 44.1663 25.8603 41.9869C25.6722 41.794 25.5218 41.5819 25.3337 41.3312C25.0704 41.5819 24.9011 41.7555 24.713 41.9291C22.6442 44.0506 20.5942 46.1528 18.5254 48.2744C18.3749 48.4286 18.2432 48.6022 18.0552 48.7179C17.5662 49.0651 17.0772 49.0651 16.6446 48.6215C16.2308 48.1779 16.212 47.6572 16.5882 47.1943C16.9267 46.77 17.3405 46.4036 17.7166 45.9985C19.541 44.1277 21.3653 42.2569 23.2084 40.3668C23.4153 40.1933 23.5658 40.0197 23.7539 39.8268ZM17.9235 34.5809C19.3529 34.6001 20.1616 33.7708 20.1616 32.3243C20.1616 30.2799 18.5066 27.8498 16.6258 27.1748C15.4973 26.7698 14.4441 26.9048 13.5602 27.792C12.6762 28.6792 12.5258 29.7592 12.9207 30.9164C13.579 32.8451 15.9487 34.5616 17.9235 34.5809Z" fill="black"/>
<path d="M24.9387 57.0112C21.4782 57.0112 18.0364 57.0112 14.5758 57.0112C14.2561 57.0112 13.8611 57.0112 13.6354 56.8376C13.3721 56.6255 13.1088 56.2012 13.1464 55.8926C13.184 55.5647 13.485 55.179 13.7859 54.9668C13.9928 54.8125 14.3689 54.8318 14.6698 54.8318C21.497 54.8318 28.3429 54.8318 35.17 54.8318C35.2829 54.8318 35.3957 54.8318 35.5274 54.8318C36.2797 54.8704 36.7687 55.314 36.7499 55.9312C36.7499 56.5676 36.2609 56.9919 35.5086 56.9919C31.9916 57.0305 28.4746 57.0112 24.9387 57.0112Z" fill="black"/>
<path d="M24.9388 62.7972C22.7383 62.7972 20.519 62.7972 18.3185 62.7972C17.4346 62.7972 16.9456 62.3922 16.9456 61.7171C16.9456 61.0421 17.4534 60.6371 18.3373 60.6371C22.7571 60.6371 27.1768 60.6371 31.5966 60.6371C32.4618 60.6371 32.9696 61.0614 32.9696 61.7364C32.9696 62.4115 32.4618 62.8165 31.5778 62.8165C29.3397 62.7972 27.1392 62.7972 24.9388 62.7972Z" fill="black"/>
</g>
<defs>
<clipPath id="clip0_514_109">
<rect width="49.8776" height="74.0606" fill="white"/>
</clipPath>
</defs>
</svg>
