<svg width="62" height="78" viewBox="0 0 62 78" fill="none" xmlns="http://www.w3.org/2000/svg">
<path d="M20.9973 76C20.9973 74.8954 21.8927 74 22.9973 74H53.9973C55.1019 74 55.9973 74.8954 55.9973 76C55.9973 77.1046 55.1019 78 53.9973 78H22.9973C21.8927 78 20.9973 77.1046 20.9973 76Z" fill="white"/>
<path d="M4.99731 64C4.99731 62.8954 5.89275 62 6.99731 62H37.9973C39.1019 62 39.9973 62.8954 39.9973 64C39.9973 65.1046 39.1019 66 37.9973 66H6.99731C5.89274 66 4.99731 65.1046 4.99731 64Z" fill="white"/>
<circle cx="11.4973" cy="71.5" r="1.5" fill="white"/>
<circle cx="53.4973" cy="65.5" r="1.5" fill="white"/>
<path d="M25.914 74.396C23.9271 73.351 23.2059 71.2032 21.7475 69.6276C20.4859 70.0706 19.1924 70.5137 17.9049 70.9786C16.687 71.4197 15.5565 71.2985 14.6008 70.3965C13.6193 69.4686 13.4623 68.3202 13.8577 67.0606C14.7617 64.1836 15.6598 61.3046 16.5578 58.4257C16.5638 58.4038 16.5618 58.378 16.5698 58.3104C14.5312 57.6269 13.4385 56.0792 12.6835 54.134C11.2291 50.3908 11.6145 50.8398 7.764 49.2384C6.86395 48.8629 5.93808 48.4079 5.21486 47.7741C3.46245 46.2402 3.1525 44.2077 3.55583 42.0023C3.69491 41.2413 3.75054 40.4664 3.88366 39.7055C4.05056 38.7379 3.81809 37.8835 3.23396 37.1146C2.59021 36.2682 1.92859 35.4337 1.28286 34.5873C-0.411933 32.3719 -0.429815 29.6956 1.24312 27.4783C1.88289 26.6279 2.54849 25.7974 3.19422 24.951C3.79624 24.1662 4.04658 23.298 3.88167 22.3006C3.70087 21.2038 3.56378 20.0991 3.42867 18.9944C3.13461 16.5764 4.44992 14.2299 6.69706 13.2107C7.72824 12.7437 8.78723 12.3325 9.84027 11.9152C10.8158 11.5298 11.5053 10.8781 11.8828 9.88863C12.1927 9.07799 12.5345 8.27927 12.8623 7.47459C14.1458 4.32542 16.383 3.04191 19.7368 3.53067C20.5971 3.65585 21.4594 3.78301 22.3217 3.9042C23.3072 4.04328 24.1874 3.7989 24.9702 3.18297C25.8067 2.52532 26.6432 1.86767 27.4955 1.2279C29.6691 -0.405298 32.2938 -0.411258 34.4833 1.21598C35.3377 1.84979 36.1741 2.50943 37.0086 3.16907C37.859 3.84261 38.8047 4.01746 39.8697 3.88434C41.3519 3.69757 42.8559 3.41146 44.3302 3.49888C46.48 3.62604 47.986 4.89565 48.8662 6.85668C49.3192 7.86799 49.7285 8.90116 50.1318 9.93433C50.4974 10.8701 51.1491 11.502 52.067 11.8775C52.8042 12.1795 53.5433 12.4735 54.2784 12.7775C57.8389 14.2478 58.9972 16.3062 58.419 20.1249C58.2958 20.9376 58.1707 21.7502 58.0753 22.5668C57.972 23.4509 58.2501 24.2358 58.7866 24.9331C59.4502 25.7954 60.1297 26.6458 60.7814 27.518C62.4047 29.6897 62.3987 32.3441 60.7715 34.5118C60.1317 35.3622 59.476 36.2006 58.8243 37.0411C58.2164 37.8259 57.9601 38.6902 58.121 39.6876C58.2938 40.7605 58.423 41.8433 58.5661 42.9202C58.8919 45.3998 57.5706 47.784 55.2599 48.8232C54.2267 49.2881 53.1717 49.7053 52.1167 50.1206C51.161 50.4961 50.4994 51.1418 50.1298 52.1015C49.8696 52.777 49.5497 53.4287 49.3132 54.1122C48.6317 56.0831 47.4893 57.619 45.4071 58.3223C46.3469 61.3285 47.2906 64.2909 48.1946 67.2652C48.7212 68.9977 47.8012 70.7243 46.0886 71.0979C45.4667 71.233 44.7534 71.0939 44.1096 70.9568C43.454 70.8177 42.8301 70.5296 42.1923 70.3051C41.5565 70.0806 40.9207 69.8521 40.2174 69.6018C39.5776 70.4879 38.9041 71.3661 38.2921 72.286C37.6583 73.2397 36.949 74.0722 35.7926 74.3941C35.3079 74.3941 34.825 74.3941 34.3403 74.3941C32.8541 73.6907 32.2839 72.3615 31.9024 70.8793C31.6679 69.9693 31.3461 69.0812 31.0619 68.1831C30.6089 69.2064 30.2433 70.1978 29.993 71.2171C29.6354 72.6655 28.9797 73.8338 27.5114 74.3941C26.9789 74.396 26.4465 74.396 25.914 74.396ZM43.5911 56.1249C44.962 56.0752 45.9992 55.4831 46.5694 54.2036C47.0025 53.236 47.3939 52.2485 47.7834 51.261C48.439 49.5941 49.5854 48.4357 51.2643 47.79C52.2319 47.4184 53.1936 47.029 54.1433 46.6138C55.5699 45.9919 56.299 44.613 56.0686 43.0772C55.9196 42.0738 55.8182 41.0605 55.6573 40.0591C55.3871 38.3564 55.8262 36.8543 56.8673 35.5052C57.4872 34.7006 58.113 33.8998 58.727 33.0912C59.7701 31.7163 59.7681 30.2798 58.7151 28.8949C58.0852 28.0664 57.4395 27.2518 56.8057 26.4273C55.8858 25.2252 55.4467 23.8702 55.5997 22.3582C55.7129 21.2276 55.8838 20.1031 56.0527 18.9785C56.2931 17.3751 55.5917 16.036 54.1135 15.3922C53.1181 14.9591 52.1107 14.5597 51.1054 14.1504C49.5477 13.5147 48.4589 12.4199 47.831 10.8562C47.4178 9.82704 47.0065 8.79387 46.5575 7.78057C45.9693 6.45732 44.7037 5.75596 43.2692 5.92484C42.5241 6.01226 41.7751 6.0818 41.0419 6.23281C38.6478 6.73151 36.5457 6.2189 34.7277 4.54993C34.2131 4.07706 33.627 3.67969 33.0667 3.25847C31.7057 2.23524 30.2811 2.22729 28.932 3.24854C28.1035 3.87639 27.2889 4.5241 26.4663 5.1599C25.0676 6.23877 23.496 6.60435 21.7575 6.33016C20.7779 6.17519 19.7944 6.05399 18.809 5.94074C17.2175 5.75596 15.9598 6.48911 15.3379 7.96733C14.9266 8.94487 14.5432 9.93631 14.1378 10.9158C13.518 12.4159 12.4689 13.4988 10.9609 14.1226C9.93564 14.5458 8.90446 14.9551 7.8852 15.3902C6.44274 16.0042 5.68972 17.3711 5.91423 18.8971C6.06126 19.9024 6.16656 20.9137 6.32949 21.9151C6.61559 23.6735 6.13875 25.2113 5.05988 26.5942C4.43601 27.3949 3.80419 28.1916 3.19621 29.0042C2.23457 30.2877 2.23854 31.7421 3.20614 33.0217C3.86379 33.8899 4.54529 34.7383 5.20294 35.6046C6.101 36.7868 6.53612 38.1239 6.39307 39.6081C6.27982 40.7625 6.10497 41.9109 5.93211 43.0593C5.69568 44.6349 6.44075 46.0197 7.90109 46.6336C8.90247 47.0549 9.91378 47.4482 10.9171 47.8635C12.447 48.4953 13.5219 49.5802 14.1478 51.112C14.5213 52.028 14.8968 52.9419 15.2743 53.8559C15.9976 55.6123 17.2453 56.3255 19.1149 56.0553C19.9772 55.9321 20.8375 55.809 21.6979 55.6798C23.5377 55.4056 25.1987 55.7891 26.6551 56.9872C27.3644 57.5713 28.1055 58.1157 28.8347 58.674C30.3049 59.7986 31.7196 59.7906 33.2018 58.6482C33.9886 58.0442 34.7694 57.4322 35.5542 56.8262C36.7761 55.8845 38.1511 55.4533 39.6909 55.6282C40.9923 55.7792 42.2857 55.958 43.5911 56.1249ZM30.2592 61.9801C28.5148 61.5152 28.022 61.2609 26.5518 60.0688C26.0829 59.6893 25.612 59.3078 25.1351 58.9383C24.253 58.2568 23.2715 57.9528 22.1509 58.1316C21.2925 58.2687 20.4243 58.3502 19.5699 58.5151C19.3514 58.5568 19.0653 58.7912 18.9997 58.9979C18.0599 61.9126 17.1479 64.8353 16.2519 67.7639C16.1764 68.0103 16.1724 68.4474 16.3115 68.5487C16.5062 68.6898 16.8976 68.6779 17.1599 68.5924C18.6242 68.1076 20.0746 67.5811 21.531 67.0705C22.4986 66.7327 22.8622 66.838 23.4542 67.6566C24.3881 68.9501 25.304 70.2554 26.2498 71.5389C26.3769 71.7118 26.663 71.9184 26.816 71.8807C27.0207 71.829 27.2611 71.5807 27.3286 71.3661C28.3181 68.2427 29.2857 65.1114 30.2592 61.9801ZM39.7326 58.1217C38.4729 58.0164 37.71 58.3025 37.0066 58.8409C35.894 59.6913 34.7794 60.5436 33.617 61.3225C32.9097 61.7954 32.1726 63.3948 32.4289 64.2233C33.1581 66.5738 33.8872 68.9242 34.6423 71.2667C34.7197 71.5091 34.9462 71.839 35.1449 71.8707C35.3416 71.9006 35.6516 71.6522 35.8046 71.4475C36.7285 70.2077 37.6206 68.9421 38.5266 67.6884C39.1445 66.836 39.4882 66.7327 40.5035 67.0884C41.9599 67.597 43.4123 68.1196 44.8766 68.6063C45.119 68.6858 45.5124 68.7096 45.6574 68.5706C45.8064 68.4275 45.8263 68.0301 45.7508 67.7877C44.8567 64.8571 43.9428 61.9325 43.005 59.0158C42.9374 58.8051 42.6632 58.5508 42.4486 58.5131C41.4294 58.3283 40.3942 58.2111 39.7326 58.1217Z" fill="#211F21"/>
<path d="M53.3207 31.0089C53.3803 43.2341 43.3467 53.2796 31.0321 53.3253C18.7732 53.3691 8.7157 43.3632 8.67397 31.0785C8.63026 18.7818 18.5944 8.74416 30.8851 8.70045C43.2593 8.65872 53.2591 18.601 53.3207 31.0089ZM11.1615 31.0049C11.1794 41.9386 20.0607 50.8477 30.9427 50.8477C41.9301 50.8477 50.8153 41.9645 50.8332 30.9612C50.8511 20.0434 41.9122 11.1542 30.9387 11.1801C20.013 11.2039 11.1436 20.0971 11.1615 31.0049Z" fill="#211F21"/>
<path d="M18.5944 34.5018C16.5181 33.4091 15.6955 31.7202 16.3214 29.8426C16.3671 29.7056 16.389 29.5347 16.4843 29.4453C17.4619 28.5393 17.3089 27.3471 17.44 26.1769C18.0202 20.9673 21.0998 17.6791 25.8285 15.8651C31.658 13.6299 38.1173 15.2849 41.9201 19.8567C43.6507 21.9349 44.5706 24.349 44.6024 27.0432C44.6123 27.822 44.7494 28.3863 45.2203 29.0241C46.4919 30.7506 45.8541 33.2481 43.9348 34.2356C43.452 34.484 43.3149 34.7403 43.4023 35.2251C43.446 35.4615 43.446 35.7079 43.4361 35.9483C43.4043 36.8284 43.3864 37.6053 44.1673 38.3404C44.9481 39.0756 44.6858 40.1962 44.4415 41.1697C43.746 43.9394 41.3936 45.8488 38.4729 45.8786C33.4879 45.9283 28.5029 45.9342 23.5178 45.8766C20.2733 45.8389 17.8116 43.5361 17.3864 40.3134C17.2513 39.2842 17.5036 38.4001 18.3341 37.7166C18.4613 37.6113 18.5785 37.4106 18.5825 37.2497C18.6063 36.3337 18.5944 35.4178 18.5944 34.5018ZM19.866 27.2518C27.3246 27.2518 34.7317 27.2518 42.1367 27.2518C42.2221 21.8733 37.0483 17.3234 30.9586 17.3632C24.8431 17.4049 19.6832 21.9786 19.866 27.2518ZM33.464 36.7152C34.6105 35.5648 35.7132 34.5118 36.7503 33.3991C37.5133 32.5805 38.3736 32.1633 39.5101 32.2408C40.3783 32.3004 41.2525 32.2746 42.1248 32.2428C42.8818 32.2169 43.3825 31.6944 43.3785 31.0129C43.3745 30.3433 42.85 29.8307 42.1129 29.783C41.944 29.7711 41.7731 29.7771 41.6042 29.7771C34.5091 29.7771 27.4141 29.7771 20.321 29.7771C20.1282 29.7771 19.9315 29.7691 19.7408 29.787C19.0573 29.8566 18.6083 30.387 18.6401 31.0705C18.6758 31.8017 19.2123 32.2467 20.0945 32.2487C22.6615 32.2547 25.2285 32.2626 27.7935 32.2428C28.6499 32.2368 29.3373 32.5269 29.9294 33.1349C31.0739 34.3151 32.2401 35.4774 33.464 36.7152ZM42.1466 39.7173C34.684 39.7173 27.269 39.7173 19.8521 39.7173C19.9693 41.8751 21.4535 43.3871 23.5854 43.403C28.5188 43.4387 33.4541 43.4368 38.3875 43.405C40.5254 43.3891 41.9877 41.9188 42.1466 39.7173ZM21.1197 37.1503C24.2192 37.1503 27.2869 37.1503 30.4261 37.1503C29.6672 36.3894 28.9757 35.686 28.2684 34.9966C28.1432 34.8734 27.9545 34.7403 27.7935 34.7403C25.5782 34.7244 23.3628 34.7283 21.1217 34.7283C21.1197 35.5608 21.1197 36.3258 21.1197 37.1503ZM40.885 34.6588C40.1459 34.7363 39.3293 34.5952 38.8246 34.927C37.9683 35.4913 37.3106 36.3556 36.5 37.1662C38.0457 37.1662 39.4564 37.1662 40.885 37.1662C40.885 36.3595 40.885 35.5906 40.885 34.6588Z" fill="#211F21"/>
<path d="M38.4828 23.7688C38.2881 24.0132 38.0933 24.4821 37.7615 24.6152C37.3999 24.7603 36.8158 24.7404 36.5019 24.5338C35.9297 24.1543 35.4468 23.6158 34.9978 23.0814C34.6223 22.6343 34.6263 22.084 34.9899 21.6091C35.3455 21.1462 35.9038 20.8601 36.3807 21.2177C37.0999 21.7561 37.6999 22.4555 38.3278 23.1072C38.4291 23.2105 38.4093 23.4271 38.4828 23.7688Z" fill="#211F21"/>
<path d="M27.3882 22.2489C27.1816 22.6602 27.0902 22.9721 26.8975 23.1966C26.52 23.6357 26.1007 24.043 25.6696 24.4305C25.1192 24.9252 24.3881 24.8934 23.9152 24.3927C23.4562 23.9059 23.4463 23.2205 23.9291 22.692C24.3364 22.2449 24.7278 21.7462 25.2305 21.4402C25.5861 21.2256 26.1683 21.1462 26.5498 21.2833C26.8994 21.4045 27.1101 21.9052 27.3882 22.2489Z" fill="#211F21"/>
<path d="M29.7606 21.7045C29.7506 20.4568 30.142 19.8707 30.9805 19.8607C31.8348 19.8508 32.2441 20.4369 32.2421 21.6727C32.2421 21.9151 32.2501 22.1575 32.2223 22.3979C32.1349 23.1192 31.6481 23.5642 30.9765 23.5543C30.3089 23.5444 29.838 23.0874 29.7645 22.3582C29.7427 22.1416 29.7606 21.9231 29.7606 21.7045Z" fill="#211F21"/>
</svg>
