<svg width="62" height="59" viewBox="0 0 62 59" fill="none" xmlns="http://www.w3.org/2000/svg">
<path d="M31 56.25C31 55.2835 31.7835 54.5 32.75 54.5H59.875C60.8415 54.5 61.625 55.2835 61.625 56.25C61.625 57.2165 60.8415 58 59.875 58H32.75C31.7835 58 31 57.2165 31 56.25Z" fill="white"/>
<path d="M17 45.75C17 44.7835 17.7835 44 18.75 44H45.875C46.8415 44 47.625 44.7835 47.625 45.75C47.625 46.7165 46.8415 47.5 45.875 47.5H18.75C17.7835 47.5 17 46.7165 17 45.75Z" fill="white"/>
<circle cx="59.4375" cy="47.0625" r="1.3125" fill="white"/>
<circle cx="20.3125" cy="55.3125" r="1.3125" fill="white"/>
<path d="M0 48.742C0.468229 47.3373 1.04948 45.9972 2.06667 44.8993C3.79427 43.0102 5.90937 41.9284 8.49271 41.8315C8.94479 41.8154 9.10625 41.6539 9.21927 41.2503C9.59062 39.8779 9.99427 38.5055 10.4141 37.1331C10.5917 36.5518 11.0599 36.2774 11.5604 36.4388C12.0609 36.6003 12.287 37.0524 12.1417 37.6498C12.1094 37.7628 12.0771 37.8758 12.0448 38.005C11.6573 39.3451 11.2859 40.6852 10.8823 42.0091C10.7693 42.3966 10.8177 42.6388 11.0922 42.9295C13.1427 45.206 15.1771 47.4987 17.2437 49.7753C17.4214 49.969 17.7443 50.0659 18.0187 50.1144C18.374 50.1789 18.7453 50.1305 19.1812 50.1305C17.6313 46.4492 16.388 42.7519 16.1135 38.8123C15.8391 34.8565 16.5172 31.03 17.7281 27.2357C16.8401 27.2357 16.0167 27.2357 15.1609 27.2357C14.6281 29.0602 14.1115 30.8685 13.5786 32.693C13.4979 32.9513 13.4495 33.1935 13.3526 33.4519C13.1589 33.9685 12.7391 34.1946 12.2547 34.0654C11.7703 33.9201 11.4958 33.5164 11.625 32.9836C11.8187 32.1602 12.0771 31.3529 12.3031 30.5456C12.6099 29.4638 12.9167 28.3821 13.2557 27.2196C12.8844 27.2196 12.5937 27.2357 12.287 27.2196C11.625 27.1873 11.2698 26.8644 11.2698 26.2024C11.2536 24.6362 11.2536 23.0539 11.2698 21.4878C11.2859 20.3576 12.0448 19.7602 13.1266 20.0992C15.0964 20.6966 17.05 21.3425 18.9875 22.0206C19.7141 22.2789 20.4245 22.3274 21.1833 22.2628C22.4911 22.1336 23.799 22.0529 25.1068 21.9237C25.349 21.9076 25.6073 21.7784 25.801 21.6492C27.1411 20.7451 28.1422 19.6956 27.9161 17.8711C27.8354 17.306 28.0937 16.6763 28.2068 16.0466C24.6708 14.9649 22.9755 12.5591 23.2016 8.82945C21.7323 8.58727 21.6677 8.49039 21.7807 7.05341C22.0875 3.33987 25.2359 0.239871 28.9172 0.0138293C32.7115 -0.212212 36.1667 2.35497 36.9255 6.08466C37.4906 8.81331 36.9578 11.3321 35.1656 13.5279C35.0849 13.6248 35.0203 13.7216 34.9234 13.8347C36.8771 15.2878 38.1849 17.193 39.1536 19.3565C40.4615 22.2951 40.9943 25.3951 41.1557 28.5758C41.2203 29.9643 41.1719 31.3529 41.1719 32.7737C42.3021 32.7737 43.5615 32.7737 44.9177 32.7737C44.9177 32.5477 44.9177 32.3216 44.9177 32.0956C44.9177 28.3982 44.9177 24.717 44.9177 21.0196C44.9177 18.7753 46.2578 17.4352 48.4859 17.4352C51.812 17.4352 55.138 17.4352 58.4802 17.4352C60.6276 17.4352 62 18.8076 62 20.9388C62 24.3295 62 27.7201 62 31.1107C62 33.2581 60.6276 34.6305 58.4802 34.6305C57.0594 34.6305 55.6224 34.6305 54.1208 34.6305C54.1208 35.4862 54.1208 36.2774 54.1208 37.0847C54.1208 37.9242 53.7495 38.5862 53.1359 39.0867C53.475 40.1847 53.8625 41.2503 54.0885 42.3321C54.4437 43.9466 54.4276 45.5774 54.1693 47.2081C54.0562 47.9831 54.1208 48.7258 54.2661 49.4685C54.3469 49.8883 54.3792 50.3081 54.3792 50.7279C54.3953 51.519 53.9917 51.9873 53.2005 51.9388C52.4901 51.9065 52.2318 52.1326 52.038 52.8269C51.0854 56.3466 47.9531 58.6716 44.3849 58.5909C40.8974 58.5102 37.8458 55.9753 37.0547 52.4716C36.9578 52.068 36.8125 51.955 36.425 51.955C30.451 51.9711 24.4771 51.9711 18.5031 51.955C18.1318 51.955 17.938 52.0034 17.8734 52.4555C17.7281 53.5534 17.2922 53.8279 16.2104 53.5696C15.9521 53.505 15.7099 53.4565 15.4677 53.4081C13.3365 57.0732 10.737 58.4618 7.41094 57.7513C4.11719 57.0409 2.37344 54.6836 1.90521 50.3243C1.29167 49.969 0.403646 50.1466 0 49.3394C0 49.1456 0 48.9357 0 48.742ZM34.6167 50.0982C35.2948 45.7227 37.5391 42.6227 41.8016 41.3956C46.0641 40.1685 49.6323 41.5571 52.5385 44.9961C52.5385 43.1394 52.2156 41.5086 51.4568 39.9425C51.2792 39.5873 51.0693 39.4581 50.6656 39.4581C48.163 39.4742 45.6604 39.4742 43.1578 39.4581C42.9318 39.4581 42.7057 39.4581 42.4958 39.4097C42.0438 39.3128 41.737 38.9737 41.8177 38.5539C41.8823 38.231 42.1891 37.9404 42.4474 37.7144C42.5766 37.6013 42.8672 37.6498 43.0932 37.6498C44.9339 37.6498 46.7583 37.6498 48.599 37.6498C49.5839 37.6498 50.5687 37.6498 51.5698 37.6498C51.9896 37.6498 52.2964 37.5045 52.3125 37.0362C52.3286 36.2289 52.3125 35.4378 52.3125 34.6305C52.1995 34.5982 52.1349 34.5659 52.0865 34.5659C48.1792 34.5659 44.2557 34.5659 40.3484 34.5659C40.187 34.5659 39.9932 34.6466 39.8802 34.7597C38.9599 35.6477 37.8458 36.0675 36.6026 36.1321C35.1495 36.2128 33.6964 36.2128 32.2432 36.2289C31.7589 36.2289 31.5328 36.4227 31.5167 36.8909C31.5005 37.117 31.5167 37.3591 31.5167 37.6498C33.7448 37.6498 35.9245 37.6498 38.1042 37.6498C38.3625 37.6498 38.637 37.6498 38.8792 37.7144C39.3312 37.8274 39.5411 38.1503 39.525 38.6185C39.5089 39.0545 39.2667 39.3451 38.8469 39.4258C38.637 39.4742 38.4109 39.4742 38.1849 39.4742C36.1828 39.4742 34.1969 39.4742 32.1948 39.4742C31.9849 39.4742 31.7589 39.4742 31.4844 39.4742C31.4844 39.7649 31.4844 39.9909 31.4844 40.2008C31.4844 42.0576 31.4844 43.9144 31.4844 45.7711C31.4844 46.0456 31.4521 46.3362 31.4198 46.6107C31.3391 47.1597 31 47.531 30.4672 47.6602C30.0958 47.7409 29.7083 47.7894 29.337 47.7894C26.5276 47.8055 23.7344 47.7894 20.925 47.7894C20.7151 47.7894 20.5052 47.8055 20.2307 47.8216C20.5052 48.4675 20.7635 49.0326 20.9573 49.6138C21.0865 50.0175 21.3286 50.0982 21.7161 50.0982C25.7042 50.0821 29.7083 50.0821 33.6964 50.0821C33.9708 50.0982 34.2776 50.0982 34.6167 50.0982ZM28.6427 26.9451C28.0776 27.0258 27.6094 27.155 27.1411 27.155C25.8979 27.1873 24.6385 27.1711 23.3953 27.1711C22.1521 27.1711 20.8927 27.1711 19.6495 27.1711C18.826 29.5769 18.2448 31.9987 17.9865 34.5013C17.6151 38.3117 18.1479 42.0091 19.3911 45.6258C19.4396 45.7711 19.6495 45.9487 19.7948 45.9487C20.2953 45.9972 20.7958 45.9649 21.3125 45.9649C21.5385 43.9789 22.4427 42.5742 24.4771 42.0576C24.4771 41.2503 24.4609 40.4753 24.4771 39.6841C24.5417 38.0534 24.4932 36.4065 24.7354 34.8081C25.0906 32.4347 26.2854 30.5456 28.5781 29.5284C28.788 29.4315 29.0141 29.3508 29.2562 29.2539C29.0464 28.4305 28.8365 27.6394 28.6427 26.9451ZM52.4901 50.0659C52.3125 46.7237 49.2448 42.6388 44.1427 42.8003C40.2677 42.9295 36.4896 46.4977 36.5542 50.0659C41.8661 50.0659 47.1781 50.0659 52.4901 50.0659ZM39.3151 29.044C39.3635 26.4123 38.6208 22.0529 37.1031 19.2112C36.2635 17.6451 35.2464 16.2404 33.7609 15.2232C33.5833 15.1102 33.2766 15.0617 33.0828 15.1263C32.2109 15.3685 31.3552 15.6591 30.5156 15.9659C30.338 16.0305 30.0958 16.1758 30.0474 16.3211C29.8698 16.9347 29.7729 17.5644 29.6276 18.2909C29.9667 18.1456 30.2089 18.0487 30.451 17.968C31.7427 17.5159 33.1312 17.9034 34.0031 18.9529C34.875 20.0185 35.0203 21.4394 34.213 22.6019C33.7932 23.1992 33.212 23.6998 32.6307 24.1519C31.9849 24.6524 31.2422 25.056 30.5802 25.5242C30.4349 25.6211 30.3219 25.9279 30.3542 26.0894C30.4995 26.8644 30.7417 27.6071 30.9031 28.3821C31.0161 28.9472 31.2906 29.1248 31.8557 29.0763C32.5016 29.0279 33.1474 29.0602 33.7932 29.0602C35.6177 29.044 37.4422 29.044 39.3151 29.044ZM39.3312 30.9008C39.2182 30.8847 39.1052 30.8524 38.9922 30.8524C36.2474 30.8524 33.5026 30.8362 30.7578 30.8685C30.338 30.8685 29.9182 30.9654 29.5146 31.1107C27.7224 31.7727 26.7859 33.2097 26.5599 35.0019C26.3177 36.8748 26.3661 38.78 26.3016 40.669C26.2854 41.0888 26.3016 41.5086 26.3016 41.9284C27.4479 41.9284 28.5297 41.9284 29.5792 41.9284C29.6115 41.8638 29.6276 41.8477 29.6437 41.8315C29.6599 40.2815 29.6599 38.7315 29.6922 37.1654C29.7406 35.2279 30.5641 34.4367 32.5016 34.4206C33.9062 34.4045 35.3271 34.4367 36.7318 34.2914C38.5401 34.13 39.5411 32.7737 39.3312 30.9008ZM46.7745 28.0914C46.7745 29.6899 46.7745 31.2076 46.7745 32.7576C47.9854 32.7576 49.1479 32.7576 50.3266 32.7576C53.0714 32.7576 55.8161 32.7576 58.5448 32.7576C59.3844 32.7576 60.0625 32.3539 60.1109 31.6435C60.2078 30.4649 60.1432 29.2862 60.1432 28.0914C55.6708 28.0914 51.2307 28.0914 46.7745 28.0914ZM23.6536 6.87581C23.8797 6.87581 24.0896 6.87581 24.3156 6.87581C25.9464 6.87581 27.5771 6.87581 29.224 6.87581C31.4521 6.87581 31.9526 7.37633 31.9526 9.6206C31.9526 10.9284 31.9526 12.2362 31.9526 13.6409C32.2271 13.4956 32.4208 13.3987 32.5984 13.2857C34.7781 11.9133 35.8438 8.89404 35.1172 6.18154C34.3906 3.43675 31.7911 1.57998 28.9979 1.77373C26.3016 1.96748 23.9604 4.17945 23.6536 6.87581ZM2.08281 48.4029C6.81354 49.4847 11.4797 50.5664 16.3073 51.6644C16.1458 51.3737 16.1135 51.2446 16.0328 51.1477C13.8531 48.7097 11.6734 46.2716 9.49375 43.8498C9.38073 43.7206 9.15469 43.6237 8.97708 43.6237C6.11927 43.43 3.00312 45.5774 2.08281 48.4029ZM60.1755 22.4727C60.1755 22.2305 60.1755 22.0529 60.1755 21.8753C60.1755 21.4394 60.1917 20.9873 60.1594 20.5513C60.0948 19.8086 59.5297 19.2112 58.7708 19.2112C55.2188 19.1951 51.6667 19.1951 48.1146 19.2112C47.4365 19.2112 46.8068 19.7117 46.7583 20.3576C46.6937 21.0519 46.7422 21.7461 46.7422 22.4727C51.2307 22.4727 55.6708 22.4727 60.1755 22.4727ZM38.8953 51.9388C39.1214 54.5868 42.0115 56.8472 44.95 56.718C47.5818 56.605 50.3427 54.167 50.3427 51.9388C46.5323 51.9388 42.738 51.9388 38.8953 51.9388ZM3.84271 50.6795C3.47135 52.9722 5.44115 55.4586 7.97604 55.9591C10.301 56.4112 13.0781 54.9097 13.5464 52.9076C10.301 52.1649 7.07187 51.4222 3.84271 50.6795ZM46.7583 26.1862C51.263 26.1862 55.7193 26.1862 60.1432 26.1862C60.1432 25.5404 60.1432 24.943 60.1432 24.3617C55.6547 24.3617 51.2146 24.3617 46.7583 24.3617C46.7583 25.0076 46.7583 25.5888 46.7583 26.1862ZM25.1552 8.70029C24.3802 11.5581 26.8021 14.4644 29.6922 14.2222C29.999 14.206 30.1281 14.1091 30.112 13.7862C30.0958 12.2201 30.112 10.6378 30.0958 9.07164C30.0958 8.94248 29.8859 8.70029 29.7729 8.70029C28.2391 8.68414 26.6891 8.70029 25.1552 8.70029ZM23.8474 25.3466C25.026 25.3466 26.1401 25.3628 27.2542 25.3305C27.4318 25.3305 27.6255 25.2175 27.8031 25.1045C29.0948 24.281 30.3865 23.4576 31.662 22.6019C32.0495 22.3435 32.437 22.0045 32.6953 21.617C33.2604 20.7774 32.7115 19.631 31.7104 19.6149C31.2422 19.5987 30.6932 19.8571 30.3057 20.1477C29.2885 20.9388 28.3036 21.7784 27.3672 22.6664C26.6568 23.3446 25.8979 23.7644 24.8969 23.6998C24.5578 23.6836 24.2188 23.7643 23.8635 23.8128C23.8474 24.3295 23.8474 24.7977 23.8474 25.3466ZM29.6115 43.8013C28.8365 43.8013 28.1422 43.7852 27.4318 43.8013C26.5437 43.8175 25.6557 43.7852 24.7839 43.8982C23.7828 44.0435 23.1854 44.9154 23.25 45.9326C25.349 45.9326 27.4641 45.9326 29.5953 45.9326C29.6115 45.2222 29.6115 44.5602 29.6115 43.8013ZM17.712 23.4253C16.2427 22.9409 14.6927 22.4404 13.1266 21.9237C13.1266 23.1024 13.1266 24.2164 13.1266 25.3144C14.5958 25.3144 16.0005 25.3144 17.3406 25.3144C17.4698 24.6524 17.5828 24.0711 17.712 23.4253ZM21.9583 23.9258C21.2318 23.9904 20.5375 24.0388 19.8432 24.1357C19.4073 24.2003 19.2297 24.5071 19.2781 24.9269C19.3104 25.3466 19.6333 25.3466 19.9401 25.3466C20.6021 25.3466 21.2641 25.3466 21.9583 25.3466C21.9583 24.8623 21.9583 24.4263 21.9583 23.9258Z" fill="black"/>
</svg>
