<svg width="18" height="20" viewBox="0 0 18 20" fill="none" xmlns="http://www.w3.org/2000/svg">
<g clip-path="url(#clip0_6_8)">
<path d="M5.15974 4.91093C5.19168 4.35197 5.17571 3.83292 5.24758 3.32187C5.52706 1.41339 7.21993 -0.00798611 9.16035 -8.53917e-07C11.0928 0.00798441 12.7617 1.42936 13.0412 3.32985C13.1131 3.84091 13.1051 4.35995 13.129 4.91093C13.6561 4.91093 14.1831 4.91093 14.7021 4.91093C15.0135 4.91093 15.325 4.90295 15.6284 4.91093C16.0197 4.91892 16.1714 5.04668 16.2273 5.42998C16.4429 7.02703 16.6585 8.63206 16.8661 10.2371C17.1776 12.5768 17.489 14.9244 17.7924 17.2641C17.8563 17.7592 17.9282 18.2543 17.992 18.7494C18 18.8213 18.008 18.8931 17.992 18.957C17.9282 19.3084 17.1296 19.9791 16.7703 19.9791C11.6837 19.9791 6.5891 19.9791 1.50249 19.9711C1.31084 19.9711 1.07927 19.8514 0.935536 19.7156C0.0731276 18.9091 0.256789 19.1327 0.384553 18.1186C0.703963 15.6271 1.03136 13.1357 1.35875 10.6443C1.58234 8.9355 1.80593 7.22666 2.0375 5.50983C2.10138 5.01474 2.23713 4.91093 2.74819 4.91093C3.54672 4.91093 4.34524 4.91093 5.15974 4.91093ZM15.317 5.88513C15.2291 5.87715 15.1892 5.86916 15.1493 5.86916C11.1647 5.86916 7.18799 5.86916 3.20335 5.86118C2.96379 5.86118 2.93185 5.97297 2.90789 6.16462C2.66035 8.0731 2.40482 9.98157 2.15728 11.89C1.86981 14.062 1.58234 16.242 1.29487 18.414C1.23898 18.8292 1.41465 19.0289 1.82988 19.0289C6.70089 19.0289 11.5719 19.0289 16.4349 19.0289C16.8342 19.0289 17.0178 18.8213 16.9699 18.438C16.8502 17.4877 16.7224 16.5375 16.5946 15.5952C16.2433 12.9201 15.8839 10.2371 15.5326 7.56204C15.4767 7.00307 15.3968 6.45209 15.317 5.88513ZM6.15789 4.88698C8.16219 4.88698 10.1425 4.88698 12.1389 4.88698C12.1389 4.51966 12.1468 4.17629 12.1389 3.83292C12.0989 2.56327 11.2605 1.47727 10.0547 1.09398C8.85691 0.710687 7.53934 1.14189 6.76477 2.14005C6.14192 2.95454 6.11797 3.89681 6.15789 4.88698Z" fill="#F2F1ED"/>
</g>
<defs>
<clipPath id="clip0_6_8">
<rect width="17.7273" height="19.9871" fill="white" transform="translate(0.272705)"/>
</clipPath>
</defs>
</svg>
