<svg width="24" height="18" viewBox="0 0 24 18" fill="none" xmlns="http://www.w3.org/2000/svg">
<path d="M23.9694 13.2104C23.8621 13.7159 23.663 14.1678 23.257 14.5125C22.4145 15.2171 21.1814 15.1252 20.4614 14.2903C20.4231 14.2444 20.3848 14.1984 20.3389 14.1525C19.2283 15.3014 17.6658 15.1941 16.7083 14.2597C15.8199 13.3865 15.7356 11.9466 16.4786 10.9892C17.2598 9.97816 18.8147 9.56456 20.1167 10.6139C20.6376 10.3152 21.0052 10.6522 20.9822 11.173C20.9593 11.7781 20.9669 12.3908 20.9822 13.0036C20.9899 13.4785 21.3192 13.8767 21.7558 13.9687C22.2154 14.0682 22.6749 13.8538 22.8664 13.4325C22.9277 13.31 22.9583 13.1644 22.9737 13.0266C23.1575 10.4224 21.5031 8.53821 19.3738 8.08631C16.8922 7.56548 14.3876 9.3118 14.0429 11.8164C13.7136 14.2138 15.2071 16.3813 17.5662 16.8945C18.5389 17.1013 19.4887 16.9864 20.4001 16.5575C20.5227 16.5039 20.6376 16.4349 20.7601 16.389C21.0435 16.2741 21.2963 16.3584 21.4265 16.5958C21.5567 16.8409 21.4724 17.1166 21.2044 17.2775C20.6835 17.5838 20.1167 17.7906 19.5193 17.8979C17.0147 18.3268 14.7016 17.1702 13.5604 14.9107C13.4455 14.6886 13.3536 14.4588 13.2846 14.2138C13.231 14.0376 13.1468 13.9916 12.9706 13.9916C10.6805 13.9993 8.39034 13.9993 6.10787 13.9993C4.79813 13.9993 3.48073 13.9993 2.17099 13.9993C1.45867 13.9993 0.853587 13.7772 0.409347 13.1951C0.125953 12.8274 0.00340413 12.4062 0.00340413 11.9543C0.00340413 8.6531 -0.00425517 5.34428 0.00340413 2.04312C0.00340413 0.863586 0.868905 0.00574448 2.0561 0.00574448C7.01933 -0.00191483 11.9749 -0.00191483 16.9381 0.00574448C18.156 0.00574448 18.9908 0.871246 18.9985 2.11205C19.0061 3.65157 18.9985 5.19109 18.9985 6.73061C18.9985 6.82252 18.9985 6.91444 18.9985 7.02167C19.2053 7.05996 19.3968 7.08294 19.5806 7.12124C21.8937 7.67271 23.3183 9.105 23.8851 11.4104C23.9311 11.6096 23.9617 11.8087 24 12.0079C23.9694 12.3985 23.9694 12.8044 23.9694 13.2104ZM1.03741 1.5759C1.01443 1.79802 0.976136 1.95887 0.976136 2.11971C0.976136 5.36726 0.976136 8.6148 0.976136 11.8623C0.976136 12.5976 1.37442 12.9883 2.10971 12.9883C5.65597 12.9883 9.20223 12.9883 12.7485 12.9883C12.8327 12.9883 12.9093 12.9806 13.0012 12.9729C12.9017 11.4564 13.3 10.116 14.265 8.96713C15.2301 7.81057 16.4862 7.18251 17.9721 7.00635C17.9721 5.29832 17.9721 3.61328 17.9721 1.92057C17.9721 1.821 17.9262 1.72143 17.8955 1.59888C17.8113 1.66781 17.75 1.70611 17.6964 1.75206C15.345 3.68221 13.0012 5.60469 10.6498 7.53484C9.91454 8.13992 9.04904 8.13992 8.32141 7.5425C6.54445 6.08723 4.76749 4.63196 2.99819 3.1767C2.36247 2.66352 1.72675 2.14269 1.03741 1.5759ZM1.92589 1.00911C2.02546 1.09336 2.07907 1.13932 2.13269 1.18528C4.4075 3.05415 6.68232 4.92302 8.95713 6.78423C9.29414 7.05996 9.66178 7.0523 10.0218 6.76125C12.2583 4.92302 14.5025 3.08478 16.739 1.24655C16.8232 1.17762 16.8998 1.10868 17.0224 1.00911C11.9749 1.00911 6.98103 1.00911 1.92589 1.00911ZM16.9841 12.4981C16.9917 13.3176 17.6581 13.984 18.4776 13.9916C19.2972 13.9916 19.9865 13.2946 19.9789 12.4827C19.9712 11.6555 19.2895 10.9892 18.4623 10.9968C17.6275 11.0122 16.9764 11.6785 16.9841 12.4981Z" fill="#211F21"/>
</svg>
