<?xml version="1.0" encoding="utf-8"?>
<!-- Generator: Adobe Illustrator 23.0.2, SVG Export Plug-In . SVG Version: 6.00 Build 0)  -->
<svg version="1.1" id="Layer_1" xmlns="http://www.w3.org/2000/svg" xmlns:xlink="http://www.w3.org/1999/xlink" x="0px" y="0px"
	 viewBox="0 0 1237.5 1000" style="enable-background:new 0 0 1237.5 1000;" xml:space="preserve">
<style type="text/css">
	.st0{fill:#8DC541;}
	.st1{fill:#F1D23C;}
</style>
<path class="st0" d="M597.7,110.8c0,10.5-1.9,21.2-5.7,32c-3.8,10.8-9.8,20.7-18,29.7c-8.2,9.1-18.8,16.4-31.6,22.1
	c-12.9,5.7-27.9,8.5-45.2,8.5h-274v220.2h320.2v53.2c0,28.3-9.3,50-27.8,65.2c-18.6,15.2-37.8,22.8-57.6,22.8H230.1v378.4h-74
	c-32.9,0-58.4-8.4-76.6-25.3c-18.1-16.9-27.2-43-27.2-78.4V192.4c0-27.4,2.9-50,8.5-67.7S75.4,93,87.4,82.7
	c12-10.3,27.3-17.5,45.9-21.5c18.6-4,40.9-6,67.1-6h397.4V110.8z"/>
<g>
	<g>
		<g>
			<path class="st1" d="M890.6,514.2c-89.7,26.4-162.9,67.4-221.2,121.8c-25.2,23.4-47.6,49.3-67.3,77.6
				c-43.4,62-74.1,145.7-93.4,229.3l-140.6,0c0,0,0,0,0,0c1-4.5,2-8.8,3.1-13.3c0-0.1,0-0.1,0.1-0.1c0.6-2.6,1.2-5.2,1.9-7.7
				c0.4-1.7,0.8-3.3,1.3-5c0.9-3.6,1.9-7,2.8-10.5c19-69.9,47-130.9,84.3-182.9c1.4-2,2.8-4,4.3-5.9c0.1-0.1,0.2-0.3,0.3-0.4
				c36.6-49.3,81.7-90.5,136-123.6c21.1-12.8,43.5-24.4,67.3-34.8c14.6-6.4,29.8-12.3,45.5-17.8c8.1-2.8,16.3-5.4,24.6-7.8
				c84.1-22.8,148.4-19.4,149.5-19.4C889.4,513.9,890,514,890.6,514.2z"/>
		</g>
		<g>
			<path class="st1" d="M940.3,537c-68,42.8-123.7,93.3-167,152.1c-15.9,21.5-30,44.1-42.5,67.9c-25.7,48.7-44,102.1-55.3,160.4
				c-0.6,2.3-1.2,4.6-1.9,6.9c-1.3,5-2.8,13.7-4.1,18.6H546.2c14.6-63.1,43.8-129.6,79.6-186c15.2-23.9,31.8-46.7,49.3-67.9
				C755.5,591.8,857.1,527.2,940.3,537z"/>
		</g>
	</g>
	<path class="st1" d="M1150.2,543C1120,434.9,1038.9,355.5,929,345.5c0,0-15.1-1.8-17.4-2.6c41-10.1,62.1-43.8,71.4-64.3
		c0.1-0.2,0.2-0.4,0.3-0.6c2.7-6.1,4.4-11,5.3-13.6c0.4-1.4,0.6-2.2,0.6-2.2c1-3.6,1.7-7.3,2.2-11.2c0,0,0.1-0.2,0.1-0.5
		c1.8-10.7,26.4-171.3-147.7-191.5c-0.1,0-0.2,0-0.3-0.1c-4.7-0.9-9.5-1.6-14.4-2.2c-9.8-1.1-19.9-1.7-30.5-1.7h-87
		c-16.3,0-30.2,1.3-41.8,3.8c-11.6,2.5-21.1,7-28.7,13.4c-7.4,6.4-13,15.2-16.6,26.3c-3.6,11.1-5.3,25.2-5.3,42.3v397.7
		c0,0.5,0.1,0.8,0.2,0.9c-0.1,0-0.2,0.1-0.2,0.1c0,0,88.4-1.9,96.6-71.5v-62c10.8,0.1,24.2,0.4,39.3,1.4h0.2c31,0,63.9,6.6,94,13.7
		c34.6,8.2,68.7,20.2,99.3,38.7c76.2,46,118.6,150.4,77.1,233.1c-12.4,24.7-31.5,45.7-53.6,62.2c-14,10.5-29.3,19.2-45.1,26.6
		c-13.2,6.2-32.9,17.4-47.5,17.5c-0.4-14.2,3.9-29.6,7-43.4c2.2-10.1,5-20.1,8.2-29.9c0.3-3.5,2-9.8,4.9-17.6
		c2.7-7.9,6.6-17.4,10.9-27.9c16.7-39.8,41-90.3,43.9-96.4c0.1-0.2-0.1-0.4-0.3-0.3c-38.8,12.3-81.8,53.2-119,107
		c-14.4,21-28,43.9-40.2,68c-30.4,59.9-52,126.7-55.8,185.9c-0.1,0.2,0.1,0.3,0.3,0.3c40.2-1.6,76.4-6.3,109.2-13.2
		c0.6-0.2,1.1-0.3,1.8-0.4c0.1,0,0.2,0,0.3-0.1c45.8-10.2,89.2-26.5,130.8-48.5c29.9-15.8,58.4-34.3,84.1-56.3
		c27.1-23.1,51.8-47.6,67-80.4c13.6-29.4,24.5-61.2,27.9-93.6C1164.3,615.7,1160.1,578.5,1150.2,543z M885.4,230
		c-2.5,12.7-7.5,26.1-14.5,38.5c-15.8,28.1-42.2,51.3-74.5,51.3h-80.5v-190c48.2-3.6,101.1-4.6,141.4,25.7
		c10.9,8.2,20.7,18.4,25.8,31.1C888.7,200.2,888.2,215.6,885.4,230z"/>
</g>
</svg>
