<svg width="74" height="74" viewBox="0 0 74 74" fill="none" xmlns="http://www.w3.org/2000/svg">
<g filter="url(#filter0_d_343_2)">
<circle r="24" transform="matrix(-1 0 0 1 34 33)" fill="#FFB703"/>
</g>
<path d="M25.6464 33.3536C25.4512 33.1583 25.4512 32.8417 25.6464 32.6464L28.8284 29.4645C29.0237 29.2692 29.3403 29.2692 29.5355 29.4645C29.7308 29.6597 29.7308 29.9763 29.5355 30.1716L26.7071 33L29.5355 35.8284C29.7308 36.0237 29.7308 36.3403 29.5355 36.5355C29.3403 36.7308 29.0237 36.7308 28.8284 36.5355L25.6464 33.3536ZM42 33.5L26 33.5V32.5L42 32.5V33.5Z" fill="white"/>
<defs>
<filter id="filter0_d_343_2" x="0" y="0" width="74" height="74" filterUnits="userSpaceOnUse" color-interpolation-filters="sRGB">
<feFlood flood-opacity="0" result="BackgroundImageFix"/>
<feColorMatrix in="SourceAlpha" type="matrix" values="0 0 0 0 0 0 0 0 0 0 0 0 0 0 0 0 0 0 127 0" result="hardAlpha"/>
<feMorphology radius="2" operator="dilate" in="SourceAlpha" result="effect1_dropShadow_343_2"/>
<feOffset dx="3" dy="4"/>
<feGaussianBlur stdDeviation="5.5"/>
<feComposite in2="hardAlpha" operator="out"/>
<feColorMatrix type="matrix" values="0 0 0 0 1 0 0 0 0 0.717647 0 0 0 0 0.0117647 0 0 0 0.4 0"/>
<feBlend mode="normal" in2="BackgroundImageFix" result="effect1_dropShadow_343_2"/>
<feBlend mode="normal" in="SourceGraphic" in2="effect1_dropShadow_343_2" result="shape"/>
</filter>
</defs>
</svg>
