<svg width="111" height="17" viewBox="0 0 111 17" fill="none" xmlns="http://www.w3.org/2000/svg">
<path d="M12.3904 16.134C12.151 16.0472 11.9161 15.9474 11.6868 15.8349C10.7024 15.3096 9.70714 14.7992 8.75152 14.2178C8.24222 13.9075 7.85169 13.9355 7.34959 14.2328C6.42345 14.8067 5.46692 15.326 4.48452 15.7881C4.067 15.9751 3.40473 16.1172 3.10238 15.9003C2.80004 15.6835 2.70646 14.9824 2.75325 14.5169C2.87799 13.3728 3.06486 12.2368 3.31294 11.1145C3.43172 10.5537 3.28775 10.1798 2.89362 9.80592C2.03339 8.98337 1.17855 8.1496 0.395693 7.2504C0.136542 6.95128 -0.0650197 6.39793 0.0195644 6.03899C0.0879515 5.74175 0.590057 5.42769 0.94459 5.35291C2.11797 5.10988 3.32194 5.02015 4.49352 4.76777C4.90173 4.65761 5.25431 4.39027 5.47974 4.02C6.05743 2.9675 6.49475 1.83088 7.06884 0.776509C7.2614 0.423184 7.71852 -0.0198736 8.02806 0.000690242C8.39879 0.0268625 8.8577 0.434399 9.06826 0.804549C9.61788 1.77018 10.0991 2.77611 10.508 3.81436C10.7887 4.53035 11.2279 4.77525 11.9261 4.84816C13.0001 4.9502 14.0677 5.11434 15.1241 5.33982C15.5039 5.42582 16.024 5.74549 16.1139 6.07264C16.2039 6.3998 15.9772 6.97185 15.7126 7.27096C14.9064 8.19072 13.9849 9.00206 13.1769 9.91809C12.9315 10.2337 12.8129 10.6355 12.8457 11.0398C12.9879 12.2736 13.2453 13.4943 13.4306 14.7226C13.5566 15.59 13.2003 16.1116 12.3904 16.134Z" fill="#FF9D3B"/>
<path d="M36.095 16.134C35.8556 16.0472 35.6207 15.9474 35.3914 15.8349C34.4069 15.3096 33.4117 14.7992 32.4561 14.2178C31.9468 13.9075 31.5563 13.9355 31.0542 14.2328C30.128 14.8067 29.1715 15.326 28.1891 15.7881C27.7716 15.9751 27.1093 16.1172 26.807 15.9003C26.5046 15.6835 26.411 14.9824 26.4578 14.5169C26.5826 13.3728 26.7694 12.2368 27.0175 11.1145C27.1363 10.5537 26.9923 10.1798 26.5982 9.80592C25.738 8.98337 24.8831 8.1496 24.1003 7.2504C23.8411 6.95129 23.6396 6.39793 23.7242 6.03899C23.7925 5.74175 24.2946 5.42769 24.6492 5.35291C25.8226 5.10988 27.0265 5.02015 28.1981 4.76777C28.6063 4.65761 28.9589 4.39027 29.1843 4.02C29.762 2.9675 30.1993 1.83088 30.7734 0.776509C30.966 0.423184 31.4231 -0.0198737 31.7326 0.000690242C32.1034 0.0268625 32.5623 0.434399 32.7729 0.804549C33.3225 1.77018 33.8037 2.77611 34.2126 3.81436C34.4933 4.53035 34.9324 4.77525 35.6307 4.84816C36.7047 4.9502 37.7723 5.11434 38.8287 5.33982C39.2084 5.42582 39.7285 5.74549 39.8185 6.07264C39.9085 6.3998 39.6818 6.97185 39.4172 7.27096C38.611 8.19072 37.6895 9.00206 36.8815 9.91809C36.6361 10.2337 36.5174 10.6355 36.5503 11.0398C36.6925 12.2736 36.9499 13.4943 37.1352 14.7226C37.2612 15.59 36.9049 16.1116 36.095 16.134Z" fill="#FF9D3B"/>
<path d="M59.8234 16.134C59.584 16.0472 59.3491 15.9474 59.1198 15.8349C58.1353 15.3096 57.1401 14.7992 56.1845 14.2178C55.6752 13.9075 55.2847 13.9355 54.7826 14.2328C53.8564 14.8067 52.8999 15.326 51.9175 15.7881C51.5 15.9751 50.8377 16.1172 50.5354 15.9003C50.233 15.6835 50.1394 14.9824 50.1862 14.5169C50.311 13.3728 50.4978 12.2368 50.7459 11.1145C50.8647 10.5537 50.7207 10.1798 50.3266 9.80592C49.4664 8.98337 48.6115 8.1496 47.8287 7.2504C47.5695 6.95128 47.368 6.39793 47.4525 6.03899C47.5209 5.74175 48.023 5.42769 48.3776 5.35291C49.551 5.10988 50.7549 5.02015 51.9265 4.76777C52.3347 4.65761 52.6873 4.39027 52.9127 4.02C53.4904 2.9675 53.9277 1.83088 54.5018 0.776509C54.6944 0.423184 55.1515 -0.0198736 55.461 0.000690242C55.8318 0.0268625 56.2907 0.434399 56.5012 0.804549C57.0509 1.77018 57.532 2.77611 57.941 3.81436C58.2217 4.53035 58.6608 4.77525 59.3591 4.84816C60.4331 4.9502 61.5007 5.11434 62.5571 5.33982C62.9368 5.42582 63.4569 5.74549 63.5469 6.07264C63.6369 6.3998 63.4101 6.97185 63.1456 7.27096C62.3393 8.19072 61.4179 9.00206 60.6099 9.91809C60.3645 10.2337 60.2458 10.6355 60.2787 11.0398C60.4209 12.2736 60.6783 13.4943 60.8636 14.7226C60.9896 15.59 60.6333 16.1116 59.8234 16.134Z" fill="#FF9D3B"/>
<path d="M83.5281 16.134C83.2887 16.0472 83.0538 15.9474 82.8245 15.8349C81.84 15.3096 80.8448 14.7992 79.8892 14.2178C79.3799 13.9075 78.9894 13.9355 78.4873 14.2328C77.5611 14.8067 76.6046 15.326 75.6222 15.7881C75.2047 15.9751 74.5424 16.1172 74.2401 15.9003C73.9377 15.6835 73.8442 14.9824 73.8909 14.5169C74.0157 13.3728 74.2026 12.2368 74.4506 11.1145C74.5694 10.5537 74.4254 10.1798 74.0313 9.80592C73.1711 8.98337 72.3162 8.1496 71.5334 7.2504C71.2742 6.95128 71.0727 6.39793 71.1573 6.03899C71.2256 5.74175 71.7278 5.42769 72.0823 5.35291C73.2557 5.10988 74.4596 5.02015 75.6312 4.76777C76.0394 4.65761 76.392 4.39027 76.6174 4.02C77.1951 2.9675 77.6324 1.83088 78.2065 0.776509C78.3991 0.423184 78.8562 -0.0198736 79.1658 0.000690242C79.5365 0.0268625 79.9954 0.434399 80.206 0.804549C80.7556 1.77018 81.2368 2.77611 81.6457 3.81436C81.9264 4.53035 82.3655 4.77525 83.0638 4.84816C84.1378 4.9502 85.2054 5.11434 86.2618 5.33982C86.6415 5.42582 87.1616 5.74549 87.2516 6.07264C87.3416 6.3998 87.1149 6.97185 86.8503 7.27096C86.0441 8.19072 85.1226 9.00206 84.3146 9.91809C84.0692 10.2337 83.9506 10.6355 83.9834 11.0398C84.1256 12.2736 84.383 13.4943 84.5683 14.7226C84.6943 15.59 84.338 16.1116 83.5281 16.134Z" fill="#FF9D3B"/>
<path d="M107.256 16.134C107.017 16.0472 106.782 15.9474 106.553 15.8349C105.568 15.3096 104.573 14.7992 103.617 14.2178C103.108 13.9075 102.718 13.9355 102.216 14.2328C101.289 14.8067 100.333 15.326 99.3505 15.7881C98.933 15.9751 98.2707 16.1172 97.9683 15.9003C97.666 15.6835 97.5724 14.9824 97.6192 14.5169C97.744 13.3728 97.9308 12.2368 98.1789 11.1145C98.2977 10.5537 98.1537 10.1798 97.7596 9.80592C96.8994 8.98337 96.0445 8.1496 95.2617 7.2504C95.0025 6.95128 94.8009 6.39793 94.8855 6.03899C94.9539 5.74175 95.456 5.42769 95.8106 5.35291C96.9839 5.10988 98.1879 5.02015 99.3595 4.76777C99.7677 4.65761 100.12 4.39027 100.346 4.02C100.923 2.9675 101.361 1.83088 101.935 0.776509C102.127 0.423184 102.584 -0.0198736 102.894 0.000690242C103.265 0.0268625 103.724 0.434399 103.934 0.804549C104.484 1.77018 104.965 2.77611 105.374 3.81436C105.655 4.53035 106.094 4.77525 106.792 4.84816C107.866 4.9502 108.934 5.11434 109.99 5.33982C110.37 5.42582 110.89 5.74549 110.98 6.07264C111.07 6.3998 110.843 6.97185 110.579 7.27096C109.772 8.19072 108.851 9.00206 108.043 9.91809C107.797 10.2337 107.679 10.6355 107.712 11.0398C107.854 12.2736 108.111 13.4943 108.297 14.7226C108.423 15.59 108.066 16.1116 107.256 16.134Z" fill="#FF9D3B"/>
</svg>
