<svg width="18" height="18" viewBox="0 0 18 18" fill="none" xmlns="http://www.w3.org/2000/svg">
<path d="M13.4746 17.99C12.6048 17.91 11.85 17.7101 11.1151 17.4401C9.37049 16.7953 7.81582 15.8155 6.38113 14.6407C4.37156 12.9961 2.69692 11.0715 1.42719 8.80696C0.767327 7.62221 0.267433 6.37748 0.0324832 5.03276C-0.0375019 4.63285 -0.00250875 4.27293 0.217444 3.923C1.04227 2.60828 1.99207 1.40354 3.18681 0.398752C3.26179 0.333766 3.34678 0.278777 3.42676 0.223789C3.92165 -0.131135 4.32657 -0.0411546 4.80646 0.333765C4.87145 0.383755 4.92644 0.443742 4.97143 0.508728C5.79625 1.66848 6.59108 2.85323 7.18596 4.14795C7.27594 4.34291 7.34092 4.55287 7.40591 4.76282C7.51089 5.09775 7.4509 5.42268 7.21095 5.67263C6.92101 5.98256 6.60108 6.2625 6.28615 6.54244C5.86624 6.91236 5.85624 6.90736 6.07619 7.42225C7.01099 9.59679 8.58066 11.1165 10.7852 11.9863C10.9851 12.0663 11.1151 12.0613 11.2551 11.8763C11.51 11.5514 11.79 11.2464 12.0649 10.9415C12.4498 10.5166 12.9247 10.3816 13.4546 10.6266C14.0645 10.9115 14.6794 11.1964 15.2542 11.5414C15.9891 11.9813 16.6889 12.4712 17.3988 12.9461C17.6837 13.136 17.8537 13.416 17.9437 13.7509C17.9937 13.9459 17.9787 14.1258 17.8787 14.2908C17.7587 14.4957 17.6387 14.7007 17.4838 14.8807C16.449 16.0604 15.2492 17.0402 13.8895 17.82C13.7446 17.91 13.5696 17.955 13.4746 17.99Z" fill="#211F21"/>
</svg>
