<svg width="20" height="21" viewBox="0 0 20 21" fill="none" xmlns="http://www.w3.org/2000/svg">
<path d="M9.09539 0.681818C9.31561 0.718536 9.53175 0.755255 9.75197 0.791973C11.8155 1.12652 13.5283 2.09751 14.8782 3.68456C16.171 5.20634 16.8235 6.98514 16.8112 8.98425C16.799 11.0078 16.1057 12.7907 14.7844 14.3247C14.7477 14.3696 14.7069 14.4145 14.6702 14.4594C14.6621 14.4675 14.658 14.4798 14.6457 14.5083C14.6743 14.5369 14.7028 14.5695 14.7314 14.5981C16.3586 16.1974 17.9858 17.7967 19.6048 19.4041C19.7475 19.5469 19.8535 19.7223 19.9759 19.8855C19.9759 19.9916 19.9759 20.0936 19.9759 20.1997C19.9473 20.2486 19.9188 20.2976 19.8902 20.3425C19.6945 20.6729 19.2744 20.7668 18.9604 20.5464C18.8952 20.5016 18.8422 20.4485 18.7851 20.3914C17.1293 18.7636 15.4777 17.1357 13.822 15.5079C13.7853 15.4712 13.7526 15.4304 13.7159 15.3896C13.3978 15.6017 13.1001 15.8179 12.7861 16.0097C11.7584 16.6339 10.6451 17.0174 9.45019 17.1602C7.72513 17.3724 6.07756 17.1112 4.54417 16.2953C2.07281 14.9816 0.535353 12.9498 0.103069 10.1674C-0.243574 7.91941 0.286586 5.86319 1.65684 4.04767C3.04749 2.21175 4.89897 1.13468 7.16642 0.767494C7.32955 0.743015 7.4886 0.710377 7.64764 0.681818C8.13294 0.681818 8.61417 0.681818 9.09539 0.681818ZM15.5185 9.0332C15.5022 8.71498 15.5103 8.47835 15.4818 8.2458C15.2697 6.48332 14.5316 4.97787 13.198 3.79472C11.4077 2.21175 9.30337 1.64873 6.97475 2.10975C4.95607 2.5055 3.36967 3.61113 2.30935 5.38993C1.10629 7.40128 0.939089 9.5391 1.87706 11.6769C2.95777 14.1411 4.91121 15.5487 7.57424 15.8914C9.46242 16.1321 11.1997 15.6588 12.7209 14.5002C14.5479 13.1089 15.4573 11.2363 15.5185 9.0332Z" fill="white"/>
</svg>
