<svg width="255" height="206" viewBox="0 0 255 206" fill="none" xmlns="http://www.w3.org/2000/svg">
<path d="M358 52.1365C349.726 22.2274 326.444 3.99114 295.336 3.05298C257.115 1.90028 264.476 72.5272 226.239 72.2161C188.308 71.9074 196.153 4.76117 158.26 3.05298C118.57 1.26377 112.907 45.2062 83.8471 72.2161C54.7871 99.2259 3 3.05298 3 3.05298" stroke="#FFB703" stroke-width="6" stroke-linecap="round"/>
<path d="M358 114.136C349.726 84.2274 326.444 65.9911 295.336 65.053C257.115 63.9003 264.476 134.527 226.239 134.216C188.308 133.907 196.153 66.7612 158.26 65.053C118.57 63.2638 112.907 107.206 83.8471 134.216C54.7871 161.226 3 65.053 3 65.053" stroke="#FFB703" stroke-width="6" stroke-linecap="round"/>
<path d="M358 178.136C349.726 148.227 326.444 129.991 295.336 129.053C257.115 127.9 264.476 198.527 226.239 198.216C188.308 197.907 196.153 130.761 158.26 129.053C118.57 127.264 112.907 171.206 83.8471 198.216C54.7871 225.226 3 129.053 3 129.053" stroke="#FFB703" stroke-width="6" stroke-linecap="round"/>
</svg>
